<svg width="18" height="19" viewBox="0 0 18 19" fill="none" xmlns="http://www.w3.org/2000/svg">
<path d="M8.1 7.0998H9.9V5.2998H8.1M9 16.9998C5.031 16.9998 1.8 13.7688 1.8 9.7998C1.8 5.8308 5.031 2.5998 9 2.5998C12.969 2.5998 16.2 5.8308 16.2 9.7998C16.2 13.7688 12.969 16.9998 9 16.9998ZM9 0.799805C7.8181 0.799805 6.64778 1.0326 5.55585 1.48489C4.46392 1.93718 3.47177 2.60012 2.63604 3.43584C0.948211 5.12367 0 7.41286 0 9.7998C0 12.1868 0.948211 14.4759 2.63604 16.1638C3.47177 16.9995 4.46392 17.6624 5.55585 18.1147C6.64778 18.567 7.8181 18.7998 9 18.7998C11.3869 18.7998 13.6761 17.8516 15.364 16.1638C17.0518 14.4759 18 12.1868 18 9.7998C18 8.61791 17.7672 7.44758 17.3149 6.35565C16.8626 5.26372 16.1997 4.27157 15.364 3.43584C14.5282 2.60012 13.5361 1.93718 12.4442 1.48489C11.3522 1.0326 10.1819 0.799805 9 0.799805ZM8.1 14.2998H9.9V8.8998H8.1V14.2998Z" fill="#333333"/>
</svg>
