<svg width="15" height="19" viewBox="0 0 15 19" fill="none" xmlns="http://www.w3.org/2000/svg">
<path d="M4.42509 0.817839C5.44309 0.68939 6.29859 1.26376 6.70361 2.01031L7.69988 3.84731C8.25259 4.8667 7.93499 6.06282 7.09728 6.81529C6.60236 7.25939 6.10496 7.76681 5.81651 8.21455C5.7974 8.24647 5.79143 8.28367 5.79971 8.31932C6.06644 9.65208 7.04591 10.9689 7.91968 11.9131C7.96363 11.9582 8.02098 11.9902 8.08457 12.0054C8.14817 12.0205 8.2152 12.0181 8.27729 11.9983L10.2407 11.4326C10.7696 11.2802 11.3375 11.2879 11.8612 11.4548C12.385 11.6217 12.8369 11.9389 13.1509 12.36L14.572 14.2658C14.9573 14.7832 15.1524 15.4846 14.857 16.1592C14.5932 16.7618 14.083 17.6309 13.1549 18.2089C12.1917 18.8084 10.8724 19.0361 9.14612 18.4904C7.21731 17.8801 5.39518 16.3496 3.88423 14.3924C2.3644 12.4228 1.11326 9.96273 0.354577 7.3974C-0.362122 4.9751 0.0705645 3.34445 1.08906 2.29454C2.07149 1.28153 3.47921 0.937633 4.42509 0.817839ZM5.59917 2.51955C5.37345 2.10369 4.97089 1.89826 4.59303 1.94609C3.75285 2.05267 2.70077 2.341 2.00975 3.05384C1.35479 3.72934 0.901363 4.91908 1.54545 7.09769C2.26907 9.54277 3.46044 11.8794 4.89038 13.7319C6.32921 15.5962 7.96413 16.9126 9.5467 17.4132C10.9569 17.8591 11.8633 17.6387 12.4639 17.2652C13.0991 16.8693 13.4898 16.2403 13.7121 15.7329C13.8138 15.5006 13.7698 15.2 13.5545 14.9112L12.1334 13.0054C11.969 12.7849 11.7323 12.6187 11.458 12.5312C11.1837 12.4437 10.8862 12.4396 10.6092 12.5194L8.64576 13.0851C8.05897 13.2541 7.39808 13.1033 6.98071 12.6524C6.07138 11.6699 4.91261 10.1631 4.58513 8.52566C4.52253 8.21877 4.58291 7.90136 4.75504 7.63244C5.12944 7.05214 5.72216 6.46046 6.23536 5.9995C6.73671 5.54948 6.87896 4.87991 6.59544 4.35655L5.59917 2.51955Z" fill="#333333"/>
</svg>
