<svg width="18" height="19" viewBox="0 0 18 19" fill="none" xmlns="http://www.w3.org/2000/svg">
<path d="M12.924 11.5998C12.996 11.0058 13.05 10.4118 13.05 9.7998C13.05 9.1878 12.996 8.5938 12.924 7.9998H15.966C16.11 8.5758 16.2 9.1788 16.2 9.7998C16.2 10.4208 16.11 11.0238 15.966 11.5998M11.331 16.6038C11.871 15.6048 12.285 14.5248 12.573 13.3998H15.228C14.3561 14.9013 12.9727 16.0386 11.331 16.6038ZM11.106 11.5998H6.894C6.804 11.0058 6.75 10.4118 6.75 9.7998C6.75 9.1878 6.804 8.5848 6.894 7.9998H11.106C11.187 8.5848 11.25 9.1878 11.25 9.7998C11.25 10.4118 11.187 11.0058 11.106 11.5998ZM9 16.9638C8.253 15.8838 7.65 14.6868 7.281 13.3998H10.719C10.35 14.6868 9.747 15.8838 9 16.9638ZM5.4 6.1998H2.772C3.63497 4.6943 5.01732 3.55514 6.66 2.9958C6.12 3.9948 5.715 5.0748 5.4 6.1998ZM2.772 13.3998H5.4C5.715 14.5248 6.12 15.6048 6.66 16.6038C5.02076 16.0383 3.64036 14.9008 2.772 13.3998ZM2.034 11.5998C1.89 11.0238 1.8 10.4208 1.8 9.7998C1.8 9.1788 1.89 8.5758 2.034 7.9998H5.076C5.004 8.5938 4.95 9.1878 4.95 9.7998C4.95 10.4118 5.004 11.0058 5.076 11.5998M9 2.6268C9.747 3.7068 10.35 4.9128 10.719 6.1998H7.281C7.65 4.9128 8.253 3.7068 9 2.6268ZM15.228 6.1998H12.573C12.2913 5.08512 11.8742 4.00911 11.331 2.9958C12.987 3.5628 14.364 4.7058 15.228 6.1998ZM9 0.799805C4.023 0.799805 0 4.8498 0 9.7998C0 12.1868 0.948211 14.4759 2.63604 16.1638C3.47177 16.9995 4.46392 17.6624 5.55585 18.1147C6.64778 18.567 7.8181 18.7998 9 18.7998C11.3869 18.7998 13.6761 17.8516 15.364 16.1638C17.0518 14.4759 18 12.1868 18 9.7998C18 8.61791 17.7672 7.44758 17.3149 6.35565C16.8626 5.26372 16.1997 4.27157 15.364 3.43584C14.5282 2.60012 13.5361 1.93718 12.4442 1.48489C11.3522 1.0326 10.1819 0.799805 9 0.799805Z" fill="#333333"/>
</svg>
