<svg width="13" height="17" viewBox="0 0 13 17" fill="none" xmlns="http://www.w3.org/2000/svg">
<path d="M1 2.5V14.5C1 14.8978 1.14487 15.2794 1.40273 15.5607C1.66059 15.842 2.01033 16 2.375 16H10.625C10.9897 16 11.3394 15.842 11.5973 15.5607C11.8551 15.2794 12 14.8978 12 14.5V5.7565C12 5.55667 11.9634 5.35886 11.8923 5.17468C11.8212 4.99051 11.7171 4.82368 11.5861 4.684L8.53363 1.4275C8.27675 1.15349 7.93177 1.00005 7.5725 1H2.375C2.01033 1 1.66059 1.15804 1.40273 1.43934C1.14487 1.72064 1 2.10218 1 2.5Z" stroke="#333333" stroke-width="2" stroke-linecap="round" stroke-linejoin="round"/>
<path d="M7.875 1V4C7.875 4.39782 8.01987 4.77936 8.27773 5.06066C8.53559 5.34196 8.88533 5.5 9.25 5.5H12" stroke="#333333" stroke-width="2" stroke-linejoin="round"/>
</svg>
