<svg width="18" height="19" viewBox="0 0 18 19" fill="none" xmlns="http://www.w3.org/2000/svg">
<path d="M15.5769 3.56904H2.50962C1.84402 3.56904 1.20569 3.83344 0.735049 4.30409C0.264405 4.77473 0 5.41306 0 6.07865V12.9152C0 13.5578 0.255288 14.1741 0.709703 14.6286C1.16412 15.083 1.78044 15.3383 2.42308 15.3383H2.76923V17.0552C2.76923 17.5179 2.95304 17.9616 3.28022 18.2888C3.6074 18.616 4.05115 18.7998 4.51385 18.7998H13.4862C13.9489 18.7998 14.3926 18.616 14.7198 18.2888C15.047 17.9616 15.2308 17.5179 15.2308 17.0552V15.3383H15.5769C16.2196 15.3383 16.8359 15.083 17.2903 14.6286C17.7447 14.1741 18 13.5578 18 12.9152V5.99211C18 5.34947 17.7447 4.73315 17.2903 4.27874C16.8359 3.82432 16.2196 3.56904 15.5769 3.56904ZM13.8462 17.0552C13.8458 17.1506 13.8078 17.2419 13.7403 17.3094C13.6729 17.3768 13.5815 17.4148 13.4862 17.4152H4.51385C4.41847 17.4148 4.3271 17.3768 4.25967 17.3094C4.19223 17.2419 4.15419 17.1506 4.15385 17.0552V10.1598C4.15419 10.0644 4.19223 9.97306 4.25967 9.90563C4.3271 9.83819 4.41847 9.80015 4.51385 9.7998H13.4862C13.5815 9.80015 13.6729 9.83819 13.7403 9.90563C13.8078 9.97306 13.8458 10.0644 13.8462 10.1598V17.0552ZM14.9712 7.71942C14.7593 7.73644 14.5474 7.68809 14.364 7.58087C14.1805 7.47365 14.0344 7.31274 13.9452 7.11984C13.8561 6.92695 13.8283 6.71136 13.8656 6.50216C13.9029 6.29297 14.0034 6.10024 14.1537 5.94999C14.3039 5.79974 14.4966 5.6992 14.7058 5.66193C14.915 5.62466 15.1306 5.65247 15.3235 5.74159C15.5164 5.83071 15.6773 5.97686 15.7845 6.16031C15.8917 6.34376 15.9401 6.55569 15.9231 6.7675C15.9033 7.01337 15.7967 7.24418 15.6223 7.4186C15.4478 7.59302 15.217 7.69966 14.9712 7.71942ZM12.8077 0.799805H5.19231C4.60991 0.800672 4.04724 1.01094 3.607 1.39224C3.16677 1.77353 2.87833 2.30042 2.79433 2.87673H15.2057C15.1217 2.30042 14.8332 1.77353 14.393 1.39224C13.9528 1.01094 13.3901 0.800672 12.8077 0.799805Z" fill="#333333"/>
</svg>
